# xmcd CD database file
#
# Track frame offsets:
#	150
#	21530
#	38020
#	55267
#	68382
#	91652
#	109602
#	124929
#	146182
#	156784
#	165137
#	177682
#
# Disc length: 2634 seconds
#
# Revision: 2
# Processed by: cddbd v1.5.2PL0 Copyright (c) Steve Scherf et al.
# Submitted via: CDex 1.51
#
DISCID=990a480c
DTITLE=Autenticos Decandentes - Serie 2000
DYEAR=2000
DGENRE=Rock
TTITLE0=Corazón
TTITLE1=La Guitarra
TTITLE2=Me Morí De Risa
TTITLE3=La Marca De La Gorra
TTITLE4=Loco (Tu Forma De Ser)
TTITLE5=Ya Me Da Igual
TTITLE6=Cómo Me Voy A Olvidar
TTITLE7=Mil Noches
TTITLE8=Entrega Al Marrón
TTITLE9=La Marcha Decadente
TTITLE10=Vení Raquel
TTITLE11=Se Va Como La Vida
EXTD=YEAR: 2000
EXTT0=
EXTT1=
EXTT2=
EXTT3=
EXTT4=
EXTT5=
EXTT6=
EXTT7=
EXTT8=
EXTT9=
EXTT10=
EXTT11=
PLAYORDER=
